<?xml version="1.0" encoding="UTF-8" standalone="no"?>
<svg
   width="1894.749"
   height="456.88608"
   viewBox="0 0 1894.749 456.88608"
   fill="none"
   version="1.1"
   id="svg140"
   xml:space="preserve"
   xmlns="http://www.w3.org/2000/svg"
   ><defs
     id="defs138" /><path
     style="fill:#e04b4f;fill-opacity:1;stroke-width:0.86443"
     d="m 1700.4104,140.88193 c -5.8107,-6.06183 -11.8997,-13.01683 -13.5312,-15.45567 -3.0936,-4.62442 -5.4566,-11.10245 -5.4483,-14.93678 0.023,-10.523798 10.0245,-19.464118 19.9071,-17.794518 4.3416,0.73349 10.6204,4.78516 12.5945,8.127028 0.8685,1.47032 1.9411,2.67329 2.3836,2.67329 0.4425,0 2.7008,-1.77369 5.0185,-3.941708 5.1075,-4.77736 9.2471,-6.63415 15.0049,-6.73 8.948,-0.14907 15.063,5.80976 15.0912,14.706128 0.032,9.92753 -5.2238,16.80885 -24.9029,32.6076 -8.0609,6.47135 -14.8578,11.76618 -15.1045,11.76618 -0.2465,0 -5.2024,-4.95973 -11.0129,-11.02155 z"
     id="path6574"
      /><path
     style="fill:#2f2f2f;fill-opacity:1"
     d="m 1227.498,455.16768 c -13.5918,-6.44271 -18.3352,-22.9481 -12.841,-44.6823 6.7307,-26.62624 30.3752,-56.00625 62.4052,-77.54314 4.9673,-3.34004 9.4418,-7.05921 9.9432,-8.26483 0.5015,-1.20562 2.3011,-9.84203 3.9992,-19.19203 1.6981,-9.35 3.7413,-20.31063 4.5404,-24.35696 0.7992,-4.04633 1.453,-8.20883 1.453,-9.25 0,-3.76598 -2.7433,-1.74851 -7.2843,5.35696 -8.329,13.03281 -20.4028,25.50908 -28.8632,29.82524 -13.2999,6.7851 -27.6043,3.46473 -35.6208,-8.26837 -3.2222,-4.71609 -4.9974,-9.42641 -6.6828,-17.7322 -0.6055,-2.98393 -1.6083,-5.59447 -2.2285,-5.8012 -0.6202,-0.20674 -3.5708,3.35966 -6.5568,7.92533 -15.2116,23.25846 -31.4088,35.50122 -48.4119,36.59241 -22.6906,1.4562 -33.5535,-16.96636 -27.8851,-47.29121 0.9252,-4.95 4.3964,-17.325 7.7138,-27.5 8.3441,-25.59286 8.8873,-33.56946 2.4939,-36.61827 -3.1124,-1.48422 -3.5899,-1.42732 -9.7237,1.15872 -4.8669,2.05188 -8.6775,2.83778 -15.5207,3.20098 l -9.0702,0.4814 -4.1974,9.13858 c -9.5442,20.77956 -23.2451,33.32109 -41.6087,38.08791 -3.2706,0.84896 -6.2669,1.88267 -6.6586,2.29712 -0.3917,0.41446 -1.9301,4.35356 -3.4187,8.75356 -11.59,34.25696 -37.3287,56.77127 -60.09144,52.56336 -15.4714,-2.86005 -26.7015,-15.132 -29.5274,-32.26694 -1.7118,-10.37881 -1.8829,-10.95463 -3.1314,-10.53845 -0.6601,0.22003 -4.0437,4.6395 -7.5192,9.82104 -12.72391,18.97006 -24.4126,27.84951 -37.7907,28.70806 -12.8597,0.82528 -21.1695,-4.85965 -24.538,-16.78707 -2.14022,-7.57813 -1.36073,-24.60942 2.0367,-44.5 1.691,-9.9 3.0769,-20.25297 3.0798,-23.0066 0.014,-13.63556 -6.76124,-19.98214 -15.58724,-14.60012 -10.9417,6.67216 -28.33527,40.02716 -41.30109,79.20156 -4.23709,12.80176 -6.32487,16.27734 -10.79985,17.97872 -3.53858,1.34537 -9.74605,-0.54558 -12.2529,-3.73252 -2.89164,-3.67613 -2.62735,-7.39524 1.91614,-26.96396 6.21333,-26.76069 9.03024,-44.84411 9.03024,-57.97049 0,-12.32847 -1.27604,-17.41358 -4.8496,-19.3261 -15.81816,-8.46562 -48.07504,39.22845 -62.61835,92.58564 -3.84416,14.10362 -6.02202,17.33387 -11.68668,17.33387 -4.74323,0 -9.83981,-2.92049 -11.6233,-6.66049 -1.5095,-3.16546 -1.42358,-4.27729 1.59122,-20.59282 1.75277,-9.48568 3.18683,-18.25919 3.18679,-19.49669 -1.4e-4,-4.07385 -2.42915,-2.32847 -7.30238,5.24719 -14.44923,22.46196 -35.28495,38.38233 -56.37281,43.07394 -10.2179,2.27327 -26.52911,1.58277 -34.44409,-1.4581 -12.94944,-4.97507 -22.6344,-15.36618 -26.99485,-28.9631 -2.96821,-9.25558 -3.63453,-25.85709 -1.49482,-37.24397 4.44772,-23.66943 14.57616,-43.0642 31.03468,-59.42781 13.1575,-13.08161 26.47196,-19.49206 40.70448,-19.59778 17.02652,-0.12647 26.08095,7.18398 28.89218,23.32726 1.46862,8.43345 0.1363,15.95821 -4.49548,25.38987 -6.05408,12.32787 -23.38629,26.54502 -40.52699,33.2432 -7.38573,2.88617 -20.52529,6.1593 -24.7257,6.1593 -6.2829,0 -7.2743,1.22468 -7.2743,8.98596 0,9.29111 1.59601,16.33522 5.288,23.33902 5.40303,10.2497 14.1451,15.13581 26.712,14.92983 23.43528,-0.38412 47.28479,-20.07184 65.31811,-53.91999 4.01905,-7.54367 7.17409,-12.26842 8.70147,-13.03068 1.31792,-0.65773 2.74171,-2.12981 3.16398,-3.27131 0.42226,-1.14149 1.71237,-10.27835 2.86689,-20.30413 1.15453,-10.02579 2.54941,-19.96912 3.09972,-22.09631 2.29589,-8.87445 11.10671,-11.57551 17.36023,-5.32199 6.22256,6.22256 6.87253,16.46569 2.4796,39.077 -1.33591,6.87622 -1.7652,11.2374 -1.16521,11.83739 1.17169,1.17169 2.68252,-0.88103 9.36562,-12.72479 10.20101,-18.07817 22.63965,-31.81314 33.75364,-37.27139 4.56548,-2.24218 6.90601,-2.72861 13.12898,-2.72861 10.24737,0 14.39754,2.64872 19.09439,12.18642 3.23911,6.57752 3.33258,7.11859 3.33258,19.29046 0,6.88772 -0.225,14.95553 -0.5,17.92848 -0.33433,3.61432 -0.11459,5.53758 0.66317,5.80439 0.63975,0.21947 3.67847,-4.08248 6.75271,-9.55988 12.24992,-21.82577 21.88046,-31.19087 35.12792,-34.15967 9.9155,-2.22213 19.5769,3.46328 24.6568,14.5098 2.0309,4.41618 2.2889,6.45955 2.2093,17.5 -0.076,10.5685 -0.6726,15.12683 -3.8597,29.5 -5.5671,25.10664 -5.2255,39.49196 0.9946,41.87882 10.6541,4.08835 27.09679,-11.82903 39.6455,-38.37882 10.712,-22.66369 13.3785,-28.24972 18.0367,-37.78503 8.6417,-17.68953 19.7113,-26.84116 30.81874,-25.47877 3.3072,0.40566 3.8115,0.0761 7.5,-4.90065 9.7028,-13.09191 25.8409,-13.25032 35.6257,-0.34969 6.7319,8.87552 11.7419,30.08078 10.5279,44.5607 -0.3032,3.61626 -0.1801,7.17552 0.2735,7.90947 2.1393,3.46134 16.0624,-3.1031 24.4674,-11.53581 6.6755,-6.69753 16.1522,-21.73069 17.1917,-27.27175 0.5673,-3.02403 0.3159,-3.76648 -1.7249,-5.09421 -5.4742,-3.56139 -9.8022,-8.38312 -11.8983,-13.25565 -1.908,-4.43519 -2.1693,-6.4939 -1.8081,-14.24164 0.6349,-13.61705 6.1016,-23.51741 15.2908,-27.69199 5.1275,-2.32934 8.2436,-2.32401 12.0886,0.0207 7.3124,4.45905 8.7389,17.42948 4.0821,37.11432 -2.1701,9.17276 -2.3013,10.6895 -1.0382,11.99917 2.6471,2.74468 9.3594,1.54425 19.1099,-3.41759 7.5885,-3.86166 9.9036,-4.58158 14.7336,-4.58158 3.2246,0 7.232,0.71258 9.1645,1.62961 4.8275,2.29082 10.15,8.89684 11.8906,14.75821 2.8404,9.56457 1.7937,17.23915 -5.5364,40.59246 -12.4825,39.76903 -11.792,55.04458 2.4864,55.00995 13.536,-0.0328 31.1433,-18.13807 44.7252,-45.99023 2.8162,-5.775 5.894,-11.625 6.8397,-13 0.9456,-1.375 2.9036,-7.10039 4.351,-12.72309 5.5843,-21.69261 11.4356,-36.35575 16.3108,-40.87391 6.5608,-6.08035 20.5508,-2.71304 20.5508,4.94646 0,1.32865 -2.2743,8.20606 -5.0541,15.28313 -16.4849,41.96954 -18.7333,72.58142 -5.9056,80.4029 1.7654,1.07637 4.3588,1.95872 5.7634,1.96077 4.3838,0.006 12.6657,-4.90883 17.8751,-10.60875 11.1536,-12.20377 25.3116,-37.30788 30.4436,-53.98062 1.3386,-4.34879 3.8759,-12.62079 5.6384,-18.38222 2.5864,-8.4545 3.9072,-11.17468 6.8469,-14.10062 5.8237,-5.79652 13.9951,-6.13132 17.5409,-0.71868 1.3741,2.0975 1.1684,3.76429 -2.3946,19.40209 -2.1439,9.40911 -5.525,25.60911 -7.5137,36 -1.9887,10.3909 -5.1812,26.95132 -7.0946,36.80094 -3.8856,20.00179 -3.7264,21.30155 2.217,18.10087 13.7707,-7.41601 34.4856,-31.92255 40.0177,-47.34257 4.838,-13.48512 14.0849,-22.81671 23.6815,-23.89838 4.6646,-0.52577 8.6881,0.92581 8.6881,3.13445 0,0.73282 -2.0125,4.33353 -4.4722,8.00158 -5.5805,8.32195 -7.5577,14.59573 -8.2432,26.15528 -0.8643,14.57599 3.4457,26.11213 13.2036,35.34076 9.4912,8.97641 19.5206,12.48637 35.5118,12.42805 8.5613,-0.0312 11.9916,-0.52471 18.5784,-2.67267 18.5623,-6.05316 32.072,-19.58954 38.0807,-38.15577 2.1087,-6.51567 2.6038,-10.04095 2.6689,-19 0.094,-12.93681 -1.539,-20.15869 -7.2817,-32.20573 -6.9536,-14.5871 -14.4683,-24.48214 -37.3374,-49.16427 -30.6003,-33.02629 -40.3814,-48.75724 -44.2956,-71.24063 -2.0039,-11.510798 -1.3602,-22.899978 2.0553,-36.364278 10.7936,-42.54966 47.1897,-72.58398026 87.8694,-72.51031026172 C 1507.7361,0.03706174 1522.2483,7.9475517 1529.2983,22.873322 c 7.8282,16.57318 2.4676,46.95808 -10.3232,58.51376 -4.5484,4.10919 -8.4467,4.65816 -12.0957,1.70336 l -2.3401,-1.89495 5.1819,-10.85505 c 6.5722,-13.76757 8.607,-20.94689 8.6034,-30.35506 -0.01,-18.1163 -11.6433,-29.02643 -30.9145,-28.98522 -23.7502,0.0508 -45.6743,15.00718 -57.6657,39.33894 -12.5967,25.56014 -10.4395,49.860178 6.7069,75.549728 5.3648,8.03782 9.7161,13.16958 27.9207,32.92888 17.3984,18.88423 27.172,31.75195 33.6029,44.24109 19.3336,37.54697 13.655,79.9644 -14.3817,107.42658 -25.1749,24.65896 -68.3246,30.77754 -99.9635,14.1747 -11.7366,-6.15892 -22.3807,-19.8496 -25.709,-33.06759 -0.6381,-2.53391 -1.5692,-4.60711 -2.0692,-4.60711 -0.4999,0 -6.184,5.2875 -12.6313,11.75 -7.2925,7.30981 -14.4821,13.4505 -19.0257,16.25 -4.0169,2.475 -8.9809,5.669 -11.0312,7.09778 l -3.7277,2.59777 -2.8205,15.40223 c -11.7759,64.30471 -29.626,102.16443 -53.556,113.59118 -7.5059,3.58409 -19.6532,4.29377 -25.5611,1.49334 z m 14.4327,-13.14795 c 12.8081,-6.53424 26.4046,-35.94236 37.1283,-80.30595 5.7653,-23.85096 5.4947,-24.06157 -11.9866,-9.32911 -9.1959,7.74983 -21.0336,20.73838 -27.3219,29.9781 -5.1377,7.54899 -12.1574,22.56558 -13.8475,29.62261 -1.9776,8.25726 -1.7247,20.68735 0.5144,25.28695 3.1732,6.51834 8.7167,8.21476 15.5133,4.7474 z M 1010.6642,308.49187 c 8.5967,-2.55296 17.4228,-10.86579 25.2318,-23.76471 3.3428,-5.52159 9.0099,-19.81832 8.4422,-21.29772 -0.2696,-0.70235 -2.6713,-1.57699 -5.3372,-1.94364 -16.0847,-2.21222 -28.7429,-15.03669 -32.3287,-32.75333 -1.6939,-8.36892 -3.7563,-8.43015 -8.32324,-0.24709 -12.5418,22.47225 -16.5164,54.30024 -8.7696,70.22587 3.1634,6.50333 8.0002,9.99621 15.48704,11.18394 0.3127,0.0496 2.8316,-0.58189 5.5977,-1.40332 z M 654.44249,250.49282 c 20.43686,-8.9216 37.63235,-23.08619 43.74042,-36.03068 2.76182,-5.85297 3.29394,-8.13217 3.30357,-14.14983 0.0136,-8.52525 -2.01285,-12.10178 -7.99054,-14.10239 -11.7115,-3.9196 -28.63803,10.2914 -41.33476,34.70343 -5.62282,10.81099 -11.16322,25.77553 -11.16322,30.15171 0,2.5221 0.375,2.91866 2.75,2.90811 1.5125,-0.007 6.32504,-1.57287 10.69453,-3.48035 z m 393.85481,-1.50744 c 0.5032,-1.925 0.7091,-8 0.4577,-13.5 -1.1374,-24.87557 -14.0314,-41.9241 -23.5277,-31.10843 -3.8413,4.37508 -5.6728,11.95641 -4.8965,20.26932 1.0901,11.67316 7.1652,20.90908 16.9819,25.81723 6.9163,3.45804 9.7956,3.0706 10.9846,-1.47812 z m 59.5951,-53.80268 c 1.9362,-3.61776 4.3236,-18.50713 3.902,-24.33534 -1.0938,-15.12158 -12.0255,-9.45568 -13.5182,7.00651 -1.0105,11.14429 6.084,23.92888 9.6162,17.32883 z M 219.99796,447.08381 c -10.88969,-3.84479 -16.39676,-13.71318 -16.23719,-29.09628 0.32096,-30.94248 22.57677,-63.29956 62.78873,-91.28671 l 8.05154,-5.6038 4.70637,-26.80582 c 2.5885,-14.7432 4.70281,-27.14332 4.69846,-27.55582 -0.004,-0.4125 -0.63128,-0.75 -1.39318,-0.75 -0.7619,0 -3.33908,3.2625 -5.72708,7.25 -6.02263,10.05662 -22.51023,26.54827 -30.28103,30.28845 -14.85688,7.15079 -30.67764,0.69898 -37.09666,-15.12826 -1.31834,-3.25061 -3.05238,-6.04702 -3.85342,-6.21425 -0.81382,-0.16989 -3.46774,2.30977 -6.01477,5.61981 -15.45874,20.08981 -35.00341,26.70773 -47.21381,15.98685 -4.51381,-3.96318 -6.98105,-8.82336 -8.37141,-16.49076 -1.2635,-6.96778 -0.48725,-15.58377 3.4426,-38.21137 1.37547,-7.91973 2.50085,-16.74008 2.50085,-19.60077 0,-13.90211 -6.66527,-19.14678 -15.86428,-12.48305 -11.0184,7.98168 -26.39737,37.57944 -36.623097,70.48335 -4.60897,14.83054 -5.73344,17.04571 -9.69191,19.09272 -6.36784,3.29293 -14.82071,-2.03116 -14.82071,-9.33492 0,-1.90987 1.78785,-11.63668 3.97301,-21.61514 5.78951,-26.43767 7.13899,-34.77422 7.75211,-47.88933 0.44441,-9.50638 0.23256,-12.57563 -1.11083,-16.09324 -7.49399,-19.62272 -34.71317,7.40721 -52.55402,52.18862 -2.17705,5.46452 -5.77983,16.62155 -8.00616,24.79339 -3.18368,11.68586 -4.59417,15.33826 -6.60675,17.1079 -6.19371,5.44606 -16.45180044,0.11468 -16.445350441406,-8.54705 C 9.7255859e-4,295.70171 2.4606426,279.41038 5.4656726,260.98538 c 3.00503,-18.425 6.1599204,-39.8 7.0108704,-47.5 2.18777,-19.79652 2.34713,-20.47956 5.51804,-23.65046 5.30745,-5.30746 12.54718,-3.2678 16.08963,4.53296 2.46957,5.43818 2.43527,13.83864 -0.11759,28.80119 -2.89975,16.99572 -1.99986,17.62795 5.82713,4.09398 17.93054,-31.00445 39.12259,-45.8206 54.73119,-38.26461 9.792157,4.7403 13.209217,15.38005 12.091587,37.64977 -0.40739,8.11773 -0.30205,13.33717 0.26918,13.33717 0.51619,0 2.7996,-3.45032 5.07425,-7.66739 12.9839,-24.0713 24.53892,-34.6337 38.038,-34.77037 6.98102,-0.0707 12.30396,2.49422 16.12607,7.77049 6.99666,9.65861 7.57256,21.84744 2.30889,48.86708 -5.28638,27.1362 -4.873,37.02019 1.70248,40.70587 6.19185,3.47066 17.0579,-4.34988 26.96676,-19.40858 7.1232,-10.82527 8.44517,-14.16664 10.28544,-25.9971 3.2532,-20.91366 10.29564,-43.4753 16.54355,-53 4.53528,-6.91387 15.20644,-8.45128 20.67854,-2.97918 1.31355,1.31355 2.38593,3.42123 2.38307,4.68373 -0.003,1.2625 -2.02095,7.16655 -4.48464,13.12012 -11.04016,26.67884 -16.30964,53.10265 -13.09341,65.65685 2.71908,10.61358 7.47859,14.83237 15.51706,13.75418 14.96941,-2.00782 37.60083,-35.87516 46.93411,-70.2357 5.11587,-18.83414 8.18775,-23.82103 15.71997,-25.51982 4.3384,-0.97847 10.03259,0.86723 11.07768,3.59068 0.35059,0.91365 -1.44854,11.39647 -3.99807,23.29516 -4.81143,22.45497 -14.6675,76.12792 -14.6675,79.87446 0,3.66386 1.92394,3.59221 7.8144,-0.29101 13.05337,-8.60529 26.97855,-25.83787 37.16593,-45.99328 3.19814,-6.32743 6.366,-12.16856 7.03968,-12.9803 0.67368,-0.81174 2.72743,-1.47589 4.56389,-1.47589 3.9934,0 2.48587,5.12894 13.37369,-45.5 14.1615,-65.85168 30.75266,-134.446208 37.24843,-153.999998 3.61647,-10.88642 8.27355,-19.94547 11.59782,-22.56034 5.67488,-4.46387 15.24022,-4.5778 21.82998,-0.26002 3.2066,2.10104 7.00037,8.68292 8.25421,14.32036 2.73627,12.30262 6.89797,63.57947 10.63214,130.999998 3.65587,66.00691 3.69651,66.5 5.47983,66.5 1.03739,0 2.6803,-3.70091 5.32705,-12 22.31511,-69.97067 61.80517,-166.808818 79.92771,-195.999998 7.29898,-11.75695 11.77944,-16.8540503 17.06364,-19.4120903 8.94664,-4.33099 21.01246,-1.65598 24.37961,5.40499 1.56709,3.2862303 1.43071,4.6375003 -3.55386,35.2122403 C 570.32614,152.97148 564.997,202.42778 564.9988,258.46831 c 0.001,36.21644 2.14891,57.00985 7.57524,73.33963 3.13073,9.42152 6.67542,14.76247 12.30837,18.5456 l 4.30235,2.88949 -2.12149,2.12117 c -1.75015,1.74989 -3.22617,2.09808 -8.4324,1.9892 -20.16824,-0.4218 -33.42822,-17.41746 -38.12669,-48.86802 -7.04912,-47.18523 -1.60239,-123.32225 17.15387,-239.785188 2.91004,-18.06923 3.41376,-23.03662 2.43374,-24 -1.9412,-1.90823 -4.42739,1.8855 -13.62142,20.78519 -22.18438,45.603308 -44.84334,104.649468 -67.93939,177.040808 -5.09592,15.97244 -10.00816,30.47732 -10.91609,32.23307 -3.13288,6.05833 -11.19658,7.99912 -17.43427,4.19613 -4.17983,-2.54836 -7.65274,-10.0093 -9.06286,-19.47001 -1.3084,-8.77827 -4.70191,-52.56822 -6.12212,-79 -3.43888,-64.00166 -6.36725,-109.465618 -7.56828,-117.499998 -0.28776,-1.925 -0.74749,-4.9625 -1.02161,-6.75 -0.6175,-4.02648 -3.04904,-4.29475 -4.53189,-0.5 -2.04821,5.24152 -12.75022,48.854648 -17.36101,70.749998 -2.54805,12.1 -8.17953,39.325 -12.51439,60.5 -10.57927,51.67785 -18.52318,88.54651 -21.47228,99.65558 -5.46417,20.58315 -11.96021,32.70152 -20.66265,38.54614 -4.58506,3.07937 -11.51651,3.8715 -12.4559,1.42348 -0.29016,-0.75614 0.63819,-4.24364 2.06299,-7.75 2.53324,-6.23416 10.85274,-35.53584 13.99732,-49.29923 2.05752,-9.00549 0.7257,-10.57728 -3.35698,-3.96183 -10.30521,16.69824 -13.43496,20.86473 -22.53645,30.00176 -6.50493,6.53033 -13.78175,12.55595 -20.52998,17 l -10.45344,6.8841 -4.14314,21 c -9.32379,47.2587 -18.65628,73.03553 -32.74145,90.43361 -11.57413,14.29643 -27.09956,20.61662 -39.70854,16.16482 z m 12.94929,-13.57221 c 7.33381,-3.79246 16.92287,-20.35506 24.34432,-42.04846 6.00446,-17.55146 14.33444,-52.24971 12.89025,-53.6939 -1.38104,-1.38104 -4.12583,0.35714 -14.85709,9.40845 -24.70951,20.84128 -40.36857,47.95487 -40.30481,69.78759 0.0238,8.13977 2.29421,14.94607 5.63312,16.88688 2.66121,1.54689 8.98293,1.37177 12.29421,-0.34056 z M 1547.3434,313.86729 c -2.4211,-0.56052 -6.0043,-2.59 -8.5874,-4.86368 -16.444,-14.47459 -15.4387,-47.87237 3.8814,-128.9501 6.488,-27.22713 6.6998,-26.06813 -4.7631,-26.06813 -5.917,0 -6.8211,-0.25061 -7.3918,-2.04896 -0.3796,-1.19576 9e-4,-3.04291 0.9136,-4.43589 1.6247,-2.47951 4.7629,-3.26292 15.1018,-3.76995 l 5,-0.2452 9.5538,-36 c 11.339,-42.726488 12.2428,-45.535378 15.9177,-49.469398 3.6842,-3.94388 8.9643,-4.18579 12.5741,-0.57605 3.4875,3.48752 3.2239,9.42037 -1.1162,25.12499 -5.6321,20.380008 -13.6097,50.459928 -14.7806,55.731648 -0.8802,3.96227 -0.8111,4.97413 0.3913,5.73468 0.803,0.50793 9.0116,0.9304 18.2414,0.93882 17.915,0.0163 19.1943,0.38933 16.7838,4.89341 -1.6724,3.12491 -7.2363,4.11024 -23.2438,4.11632 -11.6435,0.004 -14.9856,0.31266 -16.1637,1.49073 -1.5497,1.54969 -4.1596,11.8449 -13.1923,52.03803 -7.9268,35.2723 -9.7589,47.33321 -9.8705,64.97682 -0.088,13.8346 0.088,15.37116 2.2575,19.77728 2.7228,5.52939 6.211,7.72272 12.2822,7.72272 8.927,0 19.9755,-8.66069 29.3413,-23 5.4985,-8.41834 15.7012,-29.35535 21.0342,-43.16412 7.8754,-20.39222 17.442,-30.83588 28.246,-30.83588 3.6121,0 4.2042,-0.39747 6.8489,-4.59761 4.1414,-6.57711 9.9608,-9.76898 16.7797,-9.20351 7.3756,0.61164 10.8165,3.37792 15.0458,12.09617 4.5872,9.45577 6.7379,20.47334 6.7382,34.51876 2e-4,8.96094 0.3019,11.42953 1.4504,11.87025 2.8475,1.09272 14.0088,-5.51483 19.7011,-11.66322 5.6518,-6.10463 12.6798,-18.57311 12.6798,-22.49549 0,-1.37251 -1.299,-3.13018 -3.4383,-4.65228 -7.2669,-5.17049 -10.5617,-12.17383 -10.5617,-22.44958 0,-14.02574 4.6513,-24.01326 13.147,-28.22994 4.3779,-2.17291 4.8577,-2.21842 8.286,-0.78599 5.0624,2.1152 6.8582,6.73018 6.8456,17.59244 -0.01,4.675 -0.8091,12.4487 -1.786,17.27488 -0.9769,4.82618 -1.4772,9.0739 -1.1117,9.43938 0.3655,0.36547 2.7918,-0.098 5.3918,-1.02983 5.9218,-2.12245 8.4993,-2.12374 12.961,-0.006 4.5063,2.13835 8.831,8.9081 10.3427,16.19014 1.5909,7.66331 0.2635,16.20412 -6.082,39.13192 -5.5429,20.02776 -6.9914,30.44916 -5.0498,36.33226 4.432,13.42891 21.8338,5.657 34.455,-15.38808 3.3205,-5.53677 4.0016,-7.71148 4.8371,-15.44418 2.6473,-24.50273 12.8488,-47.80774 27.6951,-63.269 18.8527,-19.63343 43.8434,-21.88525 51.7288,-4.66109 12.5918,27.50412 -12.5974,60.78798 -51.0754,67.48864 -3.574,0.62238 -7.0287,1.77086 -7.6771,2.55218 -1.6853,2.03062 -0.6297,18.82298 1.5017,23.88927 3.0571,7.26687 6.6096,11.3624 12.2492,14.12159 4.7282,2.31329 6.2718,2.58055 12.3803,2.14349 18.4612,-1.3209 36.9335,-18.60063 51.8633,-48.51508 2.8136,-5.6375 5.5064,-10.25 5.9841,-10.25 1.9687,0 3.3183,3.09262 2.7227,6.23904 -1.1159,5.89541 -12.1698,27.10037 -18.4815,35.45347 -9.9374,13.15148 -20.6785,21.57511 -33.1049,25.96231 -8.2266,2.90447 -23.0095,3.23777 -30.5949,0.6898 -10.197,-3.42522 -18.3926,-11.43595 -22.093,-21.59462 -2.1453,-5.88972 -4.1262,-6.10199 -7.7773,-0.83343 -4.0542,5.85025 -14.4945,15.50004 -19.578,18.0957 -6.6608,3.40101 -16.5079,3.87868 -22.2869,1.08111 -8.3612,-4.04758 -12.5814,-12.85093 -12.649,-26.38554 -0.052,-10.36181 1.4318,-18.11911 7.325,-38.30212 5.1644,-17.68723 5.9586,-22.70227 4.3363,-27.38426 -1.4064,-4.0593 -4.7107,-5.61821 -9.8606,-4.65208 -3.2179,0.60368 -3.6829,1.19735 -6.681,8.53023 -4.1046,10.03886 -9.5622,18.43334 -15.5488,23.91589 -4.9093,4.49598 -15.6155,10.18235 -19.1737,10.18371 -3.5907,10e-4 -5.3244,2.28565 -7.9696,10.50079 -5.044,15.66445 -12.0875,27.22574 -22.4081,36.78078 -7.9599,7.36946 -13.7838,10.08248 -22.6438,10.54838 -5.6839,0.29888 -8.106,-0.0688 -12.2795,-1.86423 -10.1,-4.34489 -17.1113,-15.4827 -18.818,-29.89324 -0.3992,-3.37057 -1.173,-5.46098 -2.1619,-5.84048 -0.8472,-0.32506 -1.6939,-0.13025 -1.8816,0.43293 -0.1877,0.56318 -2.6584,4.58164 -5.4904,8.92991 -13.3644,20.52004 -32.2799,31.79843 -47.4428,28.28786 z m 99.563,-14.8352 c 9.4327,-4.81216 25.1881,-28.15398 25.4809,-37.75005 0.1064,-3.48417 -0.066,-3.67259 -4.3893,-4.8031 -14.4807,-3.78645 -24.9206,-15.83044 -26.6016,-30.68903 -0.5155,-4.55651 -1.0248,-5.80453 -2.3686,-5.80453 -3.5249,0 -10.5825,17.08396 -14.0142,33.92341 -3.4573,16.96533 -2.2982,31.89359 3.1712,40.84256 3.8047,6.22528 11.4731,7.97867 18.7216,4.28074 z m 176.5916,-50.08594 c 21.5442,-10.59415 35.5,-27.567 35.5,-43.17448 0,-13.24659 -9.45,-17.66352 -20.2185,-9.45011 -6.3563,4.84808 -13.0651,13.73571 -18.6727,24.73702 -5.5503,10.88894 -11.6981,28.94872 -10.7212,31.4946 0.8408,2.19099 3.9244,1.40285 14.1124,-3.60703 z m -147.4174,-2.11505 c 0.7706,-1.43988 0.9877,-5.99965 0.6549,-13.75 -0.5516,-12.84278 -3.5165,-23.49503 -8.2764,-29.7356 -7.7848,-10.20635 -18.1577,4.4149 -15.3779,21.67601 1.6768,10.41203 6.7006,18.16289 14.1684,21.85939 5.3807,2.66336 7.385,2.65206 8.831,-0.0498 z m 49.6769,-52.35736 c 2.2714,-8.99617 2.6564,-18.57818 0.9136,-22.73836 -1.7479,-4.17227 -3.7115,-4.71157 -6.6082,-1.81493 -5.2157,5.21572 -5.4668,22.64843 -0.4067,28.23975 2.7307,3.0174 4.7107,1.82108 6.1013,-3.68646 z"
     id="path6572" /></svg>
